<svg t="1780232639167" class="icon" viewBox="0 0 1024 1024" version="1.1" xmlns="http://www.w3.org/2000/svg" p-id="92398" width="32" height="32">
  <g transform="translate(1024, 0) scale(-1, 1)">
    <path d="M109.714286 146.285714a36.571429 36.571429 0 0 1 43.739428-35.84l237.714286 47.542857 256 51.2 237.714286 47.542858A36.571429 36.571429 0 0 1 914.285714 292.571429v438.857142a36.571429 36.571429 0 0 1-29.403428 35.84l-237.714286 47.542858-256 51.2-237.714286 47.542857A36.571429 36.571429 0 0 1 109.714286 877.714286V146.285714z m237.714285 528.64l-164.571428 16.457143v141.714286l164.571428-32.914286v-125.257143z m256-25.6l-182.857142 18.285715v117.942857l182.857142-36.571429v-99.657143z m237.714286-23.771428l-164.571428 16.457143v92.342857l164.571428-32.914286v-75.885714z m-658.285714-219.428572v211.712l164.571428-16.457143v-178.797714l-164.571428-16.457143z m237.714286 23.771429v164.169143l182.857142-18.285715v-127.597714l-182.857142-18.285714z m256 25.6v112.969143l164.571428-16.457143v-80.054857l-164.571428-16.457143z m0-165.888v92.342857l164.571428 16.457143V322.523429l-164.571428-32.914286z m-256-51.2v117.942857l182.857142 18.285714V274.980571l-182.857142-36.571428zM182.857143 190.866286v141.714285l164.571428 16.457143V223.780571l-164.571428-32.914285z" fill="#000000" fill-opacity=".65" p-id="92399"></path>
  </g>
</svg>