<?xml version="1.0" standalone="no"?><!DOCTYPE svg PUBLIC "-//W3C//DTD SVG 1.1//EN" "http://www.w3.org/Graphics/SVG/1.1/DTD/svg11.dtd"><svg class="icon" width="32px" height="32.00px" viewBox="0 0 1024 1024" version="1.1" xmlns="http://www.w3.org/2000/svg"><path d="M76.8 972.8c0-61.0304 19.968-118.6816 62.1056-166.7584A225.7408 225.7408 0 0 1 76.8 665.6l0.4608-15.6672a246.5792 246.5792 0 0 1 61.696-151.04 226.0992 226.0992 0 0 1-60.928-127.0784l-1.1264-11.4176a247.9616 247.9616 0 0 1 61.952-168.7552A225.9968 225.9968 0 0 1 77.9264 62.976l-1.024-9.728 0.1536-5.12A25.6 25.6 0 0 1 126.976 44.032l0.9216 5.12 1.8432 14.8992a175.104 175.104 0 0 0 46.336 92.3648c78.08-62.1056 201.728-98.9696 374.272-98.9696 142.592 0 242.176 13.312 305.1008 34.4576 31.232 10.496 55.9104 23.7568 71.8336 40.448 16.9984 17.92 24.2688 40.448 17.3056 63.8976-6.2976 21.1968-23.04 38.656-42.8032 52.5312-20.2752 14.2336-46.7968 26.7776-77.824 37.2224-62.1056 20.8896-145.5616 34.4064-242.1248 34.4064-201.5232 0-327.936-38.7584-404.48-95.0784A196.7104 196.7104 0 0 0 128 357.5296c2.8672 33.5872 15.616 71.3728 48.128 106.0864 5.632-4.5568 11.5712-8.96 17.7664-13.2096C272.384 396.3904 390.144 364.6976 550.4 364.6976c142.592 0 242.176 13.312 305.1008 34.4576 31.232 10.496 55.9104 23.7568 71.8336 40.448 16.9984 17.92 24.2688 40.448 17.3056 63.8976-6.2976 21.1968-23.04 38.656-42.8032 52.5312-20.2752 14.2336-46.7968 26.7776-77.824 37.2224-62.1056 20.8896-145.5616 34.4064-242.1248 34.4064-191.3344 0-314.88-34.816-392.3456-86.4256a324.4032 324.4032 0 0 1-12.0832-8.5504A196.608 196.608 0 0 0 128 664.576c2.8672 33.8944 15.7184 71.68 48.128 106.2912 78.0288-62.1056 201.6768-98.9696 374.2208-98.9696 142.592 0 242.176 13.312 305.1008 34.4576 31.232 10.496 55.9104 23.7568 71.8336 40.448 16.9984 17.92 24.2688 40.448 17.3056 63.8976-6.2976 21.1968-23.04 38.656-42.8032 52.5312-20.2752 14.2336-46.7968 26.7776-77.824 37.2224-62.1056 20.8896-145.5616 34.4064-242.1248 34.4064-201.5232 0-327.936-38.7584-404.48-95.0784-33.7408 38.5024-49.3568 84.0192-49.3568 133.0176a25.6 25.6 0 0 1-51.2 0z m473.5488-249.7024c-160 0-267.9296 32.9216-334.1824 81.5104 65.4336 44.288 177.664 79.0528 365.6704 79.0528 92.16 0 169.984-12.9536 225.792-31.744 28.0064-9.4208 49.664-20.0192 64.768-30.6176 15.616-10.9568 21.504-19.968 23.0912-25.1904 0.9216-2.9696 1.3312-7.0144-5.2736-13.9776-7.68-8.0384-23.3472-17.92-51.0464-27.2896-55.0912-18.5344-148.224-31.744-288.8192-31.744z m0-307.2c-154.4192 0-260.608 30.72-327.424 76.6976-2.304 1.536-4.5056 3.2256-6.7072 4.864l1.6384 1.1264c65.7408 43.776 177.8176 77.824 364.032 77.824 92.16 0 169.9328-12.9024 225.792-31.744 27.9552-9.3696 49.664-19.968 64.7168-30.5664 15.616-10.9568 21.504-19.968 23.0912-25.1904 0.9216-3.0208 1.3312-7.0144-5.2736-13.9776-7.68-8.0384-23.3472-17.92-51.0464-27.2896-55.0912-18.5344-148.224-31.744-288.8192-31.744z m0-307.2c-160 0-267.9296 32.9216-334.1824 81.5104 65.4336 44.288 177.664 79.0528 365.6704 79.0528 92.16 0 169.984-12.9536 225.792-31.744 28.0064-9.4208 49.664-20.0192 64.768-30.6176 15.616-10.9568 21.504-19.968 23.0912-25.1904 0.9216-3.0208 1.3312-7.0144-5.2736-13.9776-7.68-8.0384-23.3472-17.92-51.0464-27.2896-55.0912-18.5344-148.224-31.744-288.8192-31.744z" fill="#000713" /></svg>