<?xml version="1.0" standalone="no"?><!DOCTYPE svg PUBLIC "-//W3C//DTD SVG 1.1//EN" "http://www.w3.org/Graphics/SVG/1.1/DTD/svg11.dtd"><svg class="icon" width="32px" height="32.00px" viewBox="0 0 1024 1024" version="1.1" xmlns="http://www.w3.org/2000/svg"><path d="M306.8 325.2a76.8 76 90 1 0 152 0 76.8 76 90 1 0-152 0Z" fill="#2c2c2c" /><path d="M662.4 701.2a64.4 63.6 0 1 0 128.8 0 64.4 63.6 0 1 0-128.8 0Z" fill="#2c2c2c" /><path d="M282.4 692.4m-135.2 0a135.2 135.2 0 1 0 270.4 0 135.2 135.2 0 1 0-270.4 0Z" fill="#2c2c2c" /><path d="M759.2 336.8m-101.6 0a101.6 101.6 0 1 0 203.2 0 101.6 101.6 0 1 0-203.2 0Z" fill="#2c2c2c" /><path d="M538 559.6m-48 0a48 48 0 1 0 96 0 48 48 0 1 0-96 0Z" fill="#2c2c2c" /></svg>