<?xml version="1.0" standalone="no"?><!DOCTYPE svg PUBLIC "-//W3C//DTD SVG 1.1//EN" "http://www.w3.org/Graphics/SVG/1.1/DTD/svg11.dtd"><svg class="icon" width="32px" height="32.00px" viewBox="0 0 1024 1024" version="1.1" xmlns="http://www.w3.org/2000/svg"><path d="M256 368.085333a85.333333 85.333333 0 0 0 82.773333-105.984 287.146667 287.146667 0 1 1-89.6 105.728c2.304 0.170667 4.565333 0.256 6.826667 0.256z" fill="#2c2c2c" /><path d="M256 218.752a64 64 0 1 0 0 128 64 64 0 0 0 0-128z m-106.666667 64a106.666667 106.666667 0 0 1 199.424-52.693333 308.48 308.48 0 1 1-129.493333 152.917333A106.709333 106.709333 0 0 1 149.333333 282.709333z m213.333334 0a106.666667 106.666667 0 0 1-99.84 106.453333 265.813333 265.813333 0 1 0 99.285333-117.248c0.384 3.584 0.554667 7.168 0.554667 10.794667z m149.333333 106.666667a106.666667 106.666667 0 1 0 0 213.333333 106.666667 106.666667 0 0 0 0-213.333333z m-149.333333 106.666666a149.333333 149.333333 0 1 1 298.666666 0 149.333333 149.333333 0 0 1-298.666666 0z m469.333333 170.666667a21.333333 21.333333 0 1 1 42.666667 0 21.333333 21.333333 0 0 1-42.666667 0z m21.333333-64a64 64 0 1 0 0 128 64 64 0 0 0 0-128zM149.333333 789.333333a42.666667 42.666667 0 1 1 85.333334 0 42.666667 42.666667 0 0 1-85.333334 0z m42.666667-85.333333a85.333333 85.333333 0 1 0 0 170.666667 85.333333 85.333333 0 0 0 0-170.666667z" fill="#2c2c2c" /></svg>