<?xml version="1.0" standalone="no"?><!DOCTYPE svg PUBLIC "-//W3C//DTD SVG 1.1//EN" "http://www.w3.org/Graphics/SVG/1.1/DTD/svg11.dtd"><svg class="icon" width="32px" height="32.00px" viewBox="0 0 1024 1024" version="1.1" xmlns="http://www.w3.org/2000/svg"><path d="M177.777778 256m28.444444 0l56.888889 0q28.444444 0 28.444445 28.444444l0 56.888889q0 28.444444-28.444445 28.444445l-56.888889 0q-28.444444 0-28.444444-28.444445l0-56.888889q0-28.444444 28.444444-28.444444Z"  /><path d="M547.555556 256m28.444444 0l56.888889 0q28.444444 0 28.444444 28.444444l0 56.888889q0 28.444444-28.444444 28.444445l-56.888889 0q-28.444444 0-28.444444-28.444445l0-56.888889q0-28.444444 28.444444-28.444444Z"  /><path d="M732.444444 256m28.444445 0l56.888889 0q28.444444 0 28.444444 28.444444l0 56.888889q0 28.444444-28.444444 28.444445l-56.888889 0q-28.444444 0-28.444445-28.444445l0-56.888889q0-28.444444 28.444445-28.444444Z"  /><path d="M177.777778 455.111111m28.444444 0l56.888889 0q28.444444 0 28.444445 28.444445l0 56.888888q0 28.444444-28.444445 28.444445l-56.888889 0q-28.444444 0-28.444444-28.444445l0-56.888888q0-28.444444 28.444444-28.444445Z"  /><path d="M362.666667 455.111111m28.444444 0l56.888889 0q28.444444 0 28.444444 28.444445l0 56.888888q0 28.444444-28.444444 28.444445l-56.888889 0q-28.444444 0-28.444444-28.444445l0-56.888888q0-28.444444 28.444444-28.444445Z"  /><path d="M547.555556 455.111111m28.444444 0l56.888889 0q28.444444 0 28.444444 28.444445l0 56.888888q0 28.444444-28.444444 28.444445l-56.888889 0q-28.444444 0-28.444444-28.444445l0-56.888888q0-28.444444 28.444444-28.444445Z"  /><path d="M732.444444 455.111111m28.444445 0l56.888889 0q28.444444 0 28.444444 28.444445l0 56.888888q0 28.444444-28.444444 28.444445l-56.888889 0q-28.444444 0-28.444445-28.444445l0-56.888888q0-28.444444 28.444445-28.444445Z"  /><path d="M177.777778 654.222222m28.444444 0l56.888889 0q28.444444 0 28.444445 28.444445l0 56.888889q0 28.444444-28.444445 28.444444l-56.888889 0q-28.444444 0-28.444444-28.444444l0-56.888889q0-28.444444 28.444444-28.444445Z"  /><path d="M362.666667 654.222222m28.444444 0l56.888889 0q28.444444 0 28.444444 28.444445l0 56.888889q0 28.444444-28.444444 28.444444l-56.888889 0q-28.444444 0-28.444444-28.444444l0-56.888889q0-28.444444 28.444444-28.444445Z"  /><path d="M547.555556 654.222222m28.444444 0l56.888889 0q28.444444 0 28.444444 28.444445l0 56.888889q0 28.444444-28.444444 28.444444l-56.888889 0q-28.444444 0-28.444444-28.444444l0-56.888889q0-28.444444 28.444444-28.444445Z"  /><path d="M732.444444 654.222222m28.444445 0l56.888889 0q28.444444 0 28.444444 28.444445l0 56.888889q0 28.444444-28.444444 28.444444l-56.888889 0q-28.444444 0-28.444445-28.444444l0-56.888889q0-28.444444 28.444445-28.444445Z"  /></svg>